<svg version="1.2" xmlns="http://www.w3.org/2000/svg" viewBox="0 0 433 577" width="245" height="326">
	<title>1WAYmascotCLEAR-removebg-preview</title>
	<style>
		.s0 { opacity: 1;fill: #090706 } 
		.s1 { fill: #c0b5ad } 
		.s2 { fill: #d69f05 } 
		.s3 { opacity: 1;fill: #9da1b1 } 
		.s4 { opacity: 1;fill: #78715c } 
		.s5 { opacity: 1;fill: #155880 } 
		.s6 { opacity: 1;fill: #372a1b } 
		.s7 { opacity: 1;fill: #eee8e1 } 
		.s8 { opacity: 1;fill: #836509 } 
		.s9 { fill: #d9c5a3 } 
		.s10 { fill: #b48806 } 
		.s11 { opacity: 1;fill-opacity: .8;fill: #eee8e1 } 
		.s12 { opacity: .9;fill: #171412 } 
		.s13 { fill: #000000 } 
	</style>
	<g id="Background">
		<path id="Path 0" fill-rule="evenodd" class="s0" d="m216.8 70.1c2.4-0.1 3.7 0.6 5.2 2.7 1.2 1.5 2.1 3.3 2 4 0 0.6 0.8 1.6 1.7 2.1 1 0.4 3.3 1.1 5 1.5 1.8 0.3 5.3 1.5 7.8 2.6 2.5 1.1 6.6 3.5 9.2 5.4 2.7 1.9 6.9 5.8 9.4 8.7 2.5 3 6 7.7 7.6 10.4 1.7 2.8 4 7.9 5.1 11.5 1.2 3.6 2.2 7.6 2.7 11.5l25 1.9c13.7 1 26 2.3 27.2 2.7 1.5 0.6 3.6 3.5 5.8 8.2 1.9 3.9 4.8 11.3 6.4 16.2 1.6 4.9 4.1 14.4 5.4 21 1.4 6.6 3.1 16.3 3.9 21.5 0.9 6.4 1.3 20.1 1.3 42.5-0.1 24.9-0.5 36.7-1.9 48-0.9 8.3-3 22.1-4.7 30.8-1.6 8.6-2.9 16-2.9 16.5 0 0.4 2.2 3 4.8 5.8 2.6 2.8 8.6 9.3 13.3 14.5 4.7 5.2 11.1 12.3 14.3 15.9 3.9 4.5 5.6 7.3 5.6 9.3 0 2-1.2 3.7-4.8 6.6-2.6 2.1-9.7 6.8-15.7 10.3-6.1 3.6-16.2 9.4-22.5 13-6.3 3.6-12.5 6.8-13.8 7.2-1.5 0.4-2.8 0-4.2-1.4-1.2-1.2-2-3.3-2-5.5 0-1.9-0.4-3.7-1-4-0.6-0.3-2.4 1.9-4.2 4.8-1.7 2.8-4.3 6.5-5.7 8-2.5 2.7-2.9 2.8-9.1 2.2-3.6-0.3-7.5-0.8-8.8-1.1-1.6-0.3-2.5 0.2-3.3 1.9-0.7 1.2-1.9 5.3-2.8 9-0.9 3.8-1.4 7-1.1 7.1 0.3 0.2 2.5 0.6 5 1 2.5 0.3 6.6 1.4 9.2 2.4 2.6 0.9 5.6 2.5 6.7 3.5 1.5 1.2 2 2.7 1.8 4.9-0.1 2.4-0.9 3.6-2.7 4.5-1.4 0.6-4.5 1.3-7 1.4-2.5 0.1-5.1 0.4-5.8 0.6-0.6 0.2-1.2 0.9-1.2 1.6 0 0.6-2.1 3.5-4.8 6.4-2.6 2.8-6 5.5-7.6 6-1.6 0.4-3.2 1.6-3.5 2.7-0.3 1-1.8 2.5-3.4 3.2-1.5 0.8-4.3 1.4-6.2 1.4-1.9 0-4.2-0.7-5-1.5-0.8-0.8-1.8-2.7-2.1-4.2-0.4-1.6-0.2-5.2 0.5-8 0.6-2.9 0.9-5.6 0.7-6-0.2-0.5-2.1-1.1-4.2-1.4-2.2-0.4-7.1-2.1-10.9-3.9-3.9-1.8-9-4.7-11.5-6.6-2.5-1.8-4.8-3.3-5.3-3.4-0.4 0-0.7 1.5-0.7 3.3 0 1.7-0.7 5.2-1.5 7.7-0.9 2.5-4.3 10-7.6 16.8-3.2 6.7-6.3 12.2-6.9 12.2-0.6 0-0.8 0.3-0.5 0.8 0.2 0.4-0.7 2.4-2 4.5-1.4 2-2.8 3.7-3.3 3.7-0.4 0.1 0-0.7 0.8-1.6 1.3-1.5 1.3-1.7 0-1.2-0.8 0.2-1.6 1.3-1.7 2.4-0.2 1-1.5 2.5-3 3.2-2.4 1.2-4.4 1.1-13.3-0.3-5.8-0.9-12.4-2.5-14.8-3.6-2.3-1-4.6-2.7-5.1-3.6-0.4-1-1.6-5.6-2.5-10.3-1.1-5.9-1.5-11.5-1.2-18.5 0.4-8.4 1-11.1 3.5-16.5 1.7-3.6 3.3-8.4 3.6-10.7 0.4-3.8 0.2-4.4-1.8-5.2-1.2-0.5-6.1-0.5-11.2 0-4.9 0.5-9.3 1.2-9.7 1.6-0.5 0.5 0.1 2.6 1.2 4.8 1.1 2.2 2 5.7 2 7.8 0 2.8-0.7 4.4-2.8 6.5-2 1.8-3.1 4.1-3.5 7.2-0.6 3.9-1.6 5.4-7.9 11.6-4 3.9-8.4 7.3-9.8 7.7-1.4 0.3-2.7 1.4-3 2.4-0.3 1-2.7 3.4-5.3 5.3-2.6 1.9-8.4 5.4-13 7.6-4.5 2.3-10.9 5.4-14.2 6.9-4.4 2-7.2 2.6-10.6 2.3-2.5-0.1-5.4-1-6.4-1.8-1-0.8-4-4.9-6.8-9-2.8-4.1-5.6-9.3-6.4-11.5-0.7-2.2-1.3-4.4-1.3-5 0-0.6 1.2-2.4 2.7-4 1.6-1.6 3.5-3.4 4.5-4 0.9-0.6 6.9-4.5 13.5-8.9 6.5-4.3 12.2-8 12.8-8.3 0.5-0.2 2-2.1 3.2-4.3 1.3-2.2 4.2-5.2 6.5-6.6 2.4-1.5 5.9-2.9 7.8-3.2 2.5-0.4 4.8-1.9 7.8-5.1 2.4-2.5 6-6.3 8-8.5 2.1-2.1 5.9-5 13.7-8.9l-3-0.8c-1.7-0.4-11.3-1.5-21.5-2.4-10.2-0.9-19.2-1.8-20-2-0.8-0.2-2.7-0.6-4.3-0.9-2-0.4-2.7-1.2-2.7-2.8 0-1.3 1.1-3.9 2.4-5.8 1.3-1.9 4.4-7.6 6.9-12.5 2.5-4.9 5.9-12.4 7.5-16.5 1.6-4.1 4.6-12.7 6.5-19 1.9-6.3 4.2-14.4 5-18 0.9-3.6 2.5-11.2 3.6-17 1.2-5.8 2.8-15.7 3.6-22 0.9-6.3 2.3-16.7 3.1-23 0.9-7.5 1.5-21 1.5-39 0.1-15.1-0.4-33.1-1.1-40-0.6-6.9-1.7-17-2.5-22.5-0.8-5.5-2.5-15.4-4-22-1.4-6.6-3.4-15.4-4.6-19.5-1.5-5.9-1.7-7.6-0.7-8.1 0.7-0.4 4.6-0.4 15.8 0.6l-0.6-4.5c-0.5-3-0.3-4.8 0.5-5.2 0.6-0.5 5.5-0.1 10.8 0.7 5.4 0.8 17.6 2.2 27 3 9.5 0.8 17.7 1.3 18.3 1 0.5-0.3 1-1.3 1-2.2 0-1 0.7-4.5 1.5-7.8 0.9-3.3 2.6-8.2 3.9-11 1.3-2.7 3.5-6.2 5-7.7 1.4-1.6 4.8-3.9 7.6-5.3 3.3-1.6 5.2-3.3 5.5-4.7 0.3-1.3 1.3-3 2.2-3.9 1-1 2.7-1.9 3.8-2.2 1.1-0.2 3.5-0.5 5.2-0.6zm9.8 356.6c0.3 1 2.5 3.2 4.8 4.9 2.3 1.7 6 4 8.2 5.1 2.2 1.2 5.6 2.5 7.5 3.1 3.4 0.9 3.7 0.8 9.3-4.2 3.7-3.3 5.9-6.1 6.3-8.1l0.6-3c-22.2-2-30.2-2.8-32-3-2.5-0.3-3.5 0.1-4.2 1.6-0.6 1-0.8 2.7-0.5 3.6zm-131.3 21c-1.2 1.3-1.8 2.3-1.2 2.3 0.5 0 4 3 7.7 6.7 3.6 3.8 8.3 9.2 10.5 12 3.8 5.2 3.8 5.3 6.9 4 1.8-0.6 3.3-1.4 3.5-1.7 0.2-0.3-2-1.6-4.7-3-2.8-1.4-6.6-4.3-8.4-6.5-1.8-2.2-4.1-6-5-8.5-0.9-2.5-1.5-6-1.3-7.8 0.3-1.7 0.2-3.2-0.1-3.2-0.3 0-1.7 0.8-3.2 1.8-1.4 0.9-3.5 2.7-4.7 3.9z"/>
		<path id="Path 1" class="s1" d="m87.1 480.6c-0.1 0.5 1.2 2.3 2.9 3.9l3 3c6.2-3.1 7.9-4.5 7.7-5-0.2-0.6-1.3-1.1-2.5-1.3-1.4-0.1-2.4 0.5-2.8 1.5-0.6 1.7-0.7 1.7-1.7 0.1-0.7-0.9-2.4-2-3.8-2.4-1.4-0.3-2.7-0.2-2.8 0.2z"/>
		<path id="Path 2" class="s1" d="m66.2 473.4c-1.8 0.6-3.3 1.4-3.3 1.9 0.1 0.4 0.9 1.9 2 3.5 1 1.5 2 3.2 2.2 3.7 0.2 0.6 2.2 3.6 4.4 6.8 3.5 5.1 4.3 5.8 6.5 5.2 1.4-0.4 2.8-0.9 3.2-1.3 0.4-0.4-0.7-2.9-2.6-5.7-1.8-2.7-4.4-7.4-5.7-10.3-1.3-2.9-2.6-5.2-2.9-5.1-0.3 0.1-2 0.6-3.8 1.3z"/>
		<path id="Path 3" class="s2" d="m95 463.3c1 1.7 0.9 2.4-0.2 3-0.7 0.4-3.5 2-6.1 3.5q-4.8 2.7-5.4 5.2c-0.3 1.4-0.1 2.9 0.4 3.3 0.4 0.4 2.8 1 5.3 1.3 2.5 0.2 5.2 0.5 6 0.5 0.8 0.1 3-1.4 4.8-3.2l3.3-3.4c4.2 4.3 4.9 4.6 4.9 3.5 0-0.8-0.7-2.6-1.6-4-0.9-1.4-3.8-4.6-6.3-7.3-2.5-2.6-5-4.7-5.4-4.7-0.5 0-0.3 1 0.3 2.2z"/>
		<path id="Path 4" class="s3" d="m79.4 464.1c-1.6 1.7-4.8 4.2-7.2 5.5-2.3 1.3-4.2 2.6-4.2 2.9 0 0.3 0.6 0.3 1.2-0.1 0.8-0.3 2.2 1.5 3.7 4.8 1.3 2.9 3.7 7.3 5.4 9.8 1.7 2.5 3.1 5 3.1 5.6 0.1 0.7 2.7-0.2 6.1-2l6-3.1c-5.5-4.9-6.4-6.5-6-7.5 0.5-1 0.3-1.3-0.6-0.8-0.8 0.4-2.3 0.1-3.4-0.7-1.7-1.2-1.8-1.7-0.8-3.4 1.1-1.8 1.1-2.1-0.2-2.1-0.9 0-1.9-1.6-2.6-3.8-0.9-3.3-0.8-3.9 1.2-6 1.2-1.2 2-2.2 1.7-2.2-0.2 0-1.8 1.4-3.4 3.1z"/>
		<path id="Path 5" class="s1" d="m81.6 462.8c-2.6 2.5-2.7 3-1.7 6.4 0.6 2.1 1.3 3.8 1.6 3.8 0.3 0 2.1-1.2 4-2.8 3.4-2.6 3.5-2.8 2-4.9-0.8-1.2-1.5-2.9-1.5-3.8 0-0.8-0.4-1.5-0.8-1.5-0.5 0-2.1 1.2-3.6 2.7z"/>
		<path id="Path 6" class="s4" d="m275 450.8c0 0.4-0.5 2.4-1 4.4-0.6 2.1-0.7 3.6-0.3 3.4 0.5-0.2 0.8 0.2 0.8 0.9 0 0.7-0.7 1.1-1.5 0.9-0.8-0.2-2.3 0.4-3.2 1.4-0.9 0.9-1.6 2.6-1.5 3.8 0.1 1.4 0.9 2 2.2 1.9 1.1-0.1 2.6-1.2 3.2-2.6 0.7-1.3 1.3-2 1.3-1.4 0 0.6 0.5 0.3 1-0.5 0.5-0.8 0.7-2.4 0.4-3.5-0.3-1.1 0-2.6 0.8-3.2 0.8-0.8 4.2-1.3 8.3-1.3 4.5-0.1 6.6-0.4 6-1.1-0.6-0.5-2-1-3.3-1.2-1.2-0.1-2.2-0.5-2.2-1 0-0.4-0.4-0.5-1-0.2-0.6 0.3-1.2 0.1-1.5-0.5-0.3-0.6-2.3-1-4.5-1-2.2 0-4 0.3-4 0.7z"/>
		<path id="Path 7" class="s3" d="m251.5 450.6c-0.9 0.8-1.6 1.8-1.6 2.2 0 0.4 0.4 0.4 0.8 0 0.5-0.5 1.4-0.2 2.1 0.5 0.7 0.6 1.3 1 1.3 0.7 0-0.3 0.2-1.5 0.3-2.8 0.1-1.2-0.2-2.2-0.6-2.2-0.3 0-1.4 0.7-2.3 1.6z"/>
		<path id="Path 8" class="s4" d="m210 441.3c-0.6 2.8-0.9 5.4-0.5 5.7 0.3 0.3 0.6-0.2 0.6-1q0-1.5 0.9 0.5c0.6 1.4 0.9 0.2 0.9-4.3 0.1-3.4-0.1-6.2-0.3-6.2-0.2 0-1 2.4-1.6 5.2z"/>
		<path id="Path 9" class="s4" d="m217.1 435.3c-1.1 1.8-1 2.3 0.1 2.9 0.7 0.4 1.7 0.4 2.3 0 0.6-0.4 0.7-0.2 0.2 0.5-0.5 0.9 1.7 3 6.3 6.3 4.9 3.5 7.5 4.8 8.8 4.3 1.2-0.5 1.5-0.4 1 0.5-0.6 0.8 0.7 1.9 3.7 3.2 2.9 1.3 5.1 1.7 6.3 1.2 0.9-0.5 2.3-0.8 3.1-0.8 0.8 0.1 1.6 0.7 1.8 1.3q0.3 1.3-1.9 0.8c-1.9-0.5-1.9-0.4 0.2 0.5 1.4 0.6 2.7 0.8 3 0.5 0.3-0.3-0.1-1.4-0.8-2.3-0.6-0.9-1.7-2.7-2.2-3.9-0.6-1.2-2.5-2.4-4.3-2.8-1.8-0.4-5.7-1.8-8.7-3.1-3-1.3-5.6-2.2-5.7-1.9-0.2 0.3 0.7 1.3 1.9 2.2 1.3 1 2.2 2.3 2 3-0.1 0.7-0.6 1.3-1.2 1.3-0.6 0-0.9-0.6-0.7-1.3 0.1-0.6-0.5-1.1-1.3-0.9-0.8 0.2-1.2 0-0.8-0.5 0.4-0.4 0.1-1.9-0.6-3.3-0.8-1.4-3.2-3.9-5.5-5.5-2.2-1.6-4.1-3.3-4.1-3.8 0-0.4-0.4-0.7-0.8-0.7-0.4 0-1.4 1-2.1 2.2z"/>
		<path id="Path 10" class="s3" d="m247.9 451.4c0.9 2 2.4 3.8 3.3 4.1 1.3 0.3 1.7 0.1 1.3-1-0.3-0.8-1.1-1.4-1.8-1.2-0.6 0.1-1.1-0.6-1-1.5 0.2-1-0.5-2.3-1.5-2.8-1.8-1-1.8-0.9-0.3 2.4z"/>
		<path id="Path 11" class="s4" d="m213.6 424.3c-0.3 1.7-0.6 3.9-0.6 4.7 0 0.8 1.3-0.4 3-2.8 1.6-2.3 3-4.4 3-4.7 0-0.3-1.1-0.5-2.4-0.5-1.9 0-2.5 0.7-3 3.2z"/>
		<path id="Path 12" class="s4" d="m190 422.5c0 1.9 0.3 3.5 0.8 3.5 0.4 0 1.3-1.1 1.9-2.5 0.7-1.4 1.3-2.9 1.3-3.5 0-0.6-0.9-1-2-1-1.6 0-2 0.7-2 3.5z"/>
		<path id="Path 13" class="s4" d="m133.7 420.8c-2.7 1-6.5 3.4-8.8 5.7-2.7 2.8-3.5 4.2-2.7 4.6 0.7 0.4 1 1.1 0.7 1.5-0.4 0.5-2.8 1.6-5.5 2.4-3.9 1.2-5 2.1-6.2 5-0.8 2-1.2 5.4-1 8 0.2 2.5 1.3 5.7 2.4 7.2 1 1.6 4.2 4 6.9 5.4 4.5 2.3 5.3 2.4 8 1.2 2.5-1.1 3-1.9 3.2-5.3 0.1-2.2 0.2-4.6 0.2-5.3 0.1-0.6 1.2-1.2 2.5-1.2 1.4 0 3.2-0.7 4-1.5 0.9-0.8 1.6-2.4 1.6-3.5 0-1.1-0.6-3.1-1.2-4.5-0.7-1.4-2.6-3-4.3-3.5-1.6-0.5-3.6-1.5-4.2-2.2-1-1-0.9-1.7 0.5-3.5 0.9-1.2 4.9-3.4 8.7-4.7 3.9-1.4 8.5-2.6 10.3-2.6 1.7 0 3.9-0.2 4.7-0.5 1.1-0.4 1.3-1 0.5-2.5-0.9-1.7-2-2-8.2-1.9-4 0-9.5 0.8-12.1 1.7z"/>
		<path id="Path 14" class="s5" d="m178.5 419c-0.3 0.6-0.4 2.9-0.4 5.3 0.1 2.3-0.1 5.3-0.5 6.7-0.4 1.4-0.8 5.4-1.1 9-0.2 3.6-0.7 6.8-1.2 7.2-0.4 0.4-1.8 0.9-3 1-1.1 0.2-2.4 0.6-2.9 1-0.4 0.5-1.4 0.8-2.3 0.8-0.9-0.1-2.2 1.2-2.8 2.7-0.7 1.5-1.3 5.3-1.4 8.3-0.1 3 0.1 9.7 0.4 14.7 0.4 5.1 0.9 9.7 1.2 10.3 0.3 0.6 0.3 1.3 0.1 1.7-0.2 0.5 0.8 1.7 2.2 2.8 1.5 1.1 2.3 1.4 1.9 0.7-0.4-0.7-0.1-1.2 0.8-1.2 0.8 0 1.3 0.4 1 1-0.3 0.6 0.3 1.1 1.2 1.1 1 0.1 2.2 0.1 2.8 0 0.6-0.1 2.3 0.3 4 0.8 1.7 0.5 5.4 1.1 8.2 1.3 3.7 0.2 5.3-0.1 5.3-1 0-0.6 0.7-1.2 1.5-1.2 0.8 0 1.5-0.4 1.5-1 0-0.6-0.4-0.8-1-0.5-0.6 0.3-1 0.1-1-0.5 0-0.6 0.7-1 1.5-1 0.8 0 1.5-0.4 1.5-1 0-0.6 0-1.2 0-1.5 0-0.3 1.1-1.6 2.5-3 1.4-1.4 2.5-3.1 2.5-3.8 0-0.6 0.9-2.6 1.9-4.2 1.1-1.6 3.3-6.6 5.1-11 1.7-4.4 2.9-8.6 2.5-9.3-0.3-0.6-2.1-1.8-4-2.5-2.1-0.7-3.9-2.2-4.6-3.7-0.8-1.9-0.5-4.6 1.1-11.5 1.2-4.9 2.3-10.9 2.6-13.3 0.4-4.1 0.3-4.2-2.6-4.2-2.6 0-3 0.4-3 2.8 0 1.5-0.3 3.1-0.7 3.5-0.4 0.5-0.8 1.9-0.9 3 0 1.2-0.6 5.6-1.4 9.7-0.8 4.5-2.1 8.2-3.2 9.3-1 0.9-3.3 1.7-5 1.7-1.8 0-4.1-0.5-5-1.2-1.3-1-1.7-2.9-1.7-8.3-0.1-3.9 0.3-10.1 0.8-14 0.5-3.9 0.7-7.3 0.5-7.7-0.2-0.5-1.3-0.8-2.4-0.8-1 0-2.1 0.4-2.5 1z"/>
		<path id="Path 15" class="s0" d="m173 459.9c-1.1 1-2 4.4-2.6 9.2l-0.9 7.7c5.4 6.2 8.3 8.8 10 9.7 2.6 1.6 3.6 1.6 7.5 0.6 2.5-0.6 6-2.4 7.9-3.9 3.3-2.6 3.3-2.9 3.9-12.2 0.3-5.3 0.1-9.8-0.4-10.2-0.5-0.3-4.3-0.9-8.4-1.3-4.1-0.4-9.3-0.8-11.4-0.9-2.5-0.2-4.6 0.3-5.6 1.3z"/>
		<path id="Path 16" class="s5" d="m178 464.1c-0.1 0.2-0.4 2.9-0.6 5.9-0.4 4.6-0.1 5.9 1.8 8.3 2.2 2.7 2.4 2.8 6.3 1.5 2.4-0.8 4.4-2.3 5.2-3.8 0.7-1.4 1.3-4.3 1.3-6.5 0-3.8-0.1-4-3.3-4.1-1.7 0-4.8-0.4-6.8-0.8-2-0.5-3.7-0.7-3.9-0.5z"/>
		<path id="Path 17" class="s6" d="m164.6 421.3c2 2.8 3.8 5.4 4.2 5.7 0.3 0.3 0.2-0.3-0.1-1.3q-0.7-1.7 0.8-1.7c0.9 0 1.7-1.3 2.1-3.3 0.3-1.7 0.4-3.3 0.2-3.3-0.2-0.1-2.7-0.4-5.5-0.8l-5.3-0.6z"/>
		<path id="Path 18" class="s5" d="m277.7 403c-0.3 1.9-0.7 4.2-0.9 5-0.2 0.8-0.7 2.1-1.1 2.8-0.4 0.6-0.5 1.5-0.2 2 0.3 0.4 0.8 0.3 1.3-0.2 0.4-0.4 0.8-1.8 0.9-3 0-1.1 0.6-3.5 1.2-5.1 0.7-1.9 0.8-3.4 0.2-4-0.6-0.6-1.1 0.2-1.4 2.5z"/>
		<path id="Path 19" class="s1" d="m289.6 398.5c-0.3 0.8-0.6 2.3-0.6 3.3 0 0.9-0.7 3.1-1.6 4.7-0.8 1.6-1.3 4-1 5.3 0.4 1.3 0.2 2-0.4 1.7-0.6-0.3-1.1 0.6-1.3 2-0.1 1.3 0.4 2.7 1 3 0.7 0.3 1.7 0.5 2.3 0.5 0.5 0 0.8-0.4 0.5-1-0.3-0.6 1-0.3 2.7 0.6 1.8 0.9 4.1 1.4 5 1 1-0.3 3.5-3.2 5.6-6.3 2.1-3.2 4.6-7.3 5.5-9.1l1.7-3.2c-14-3.1-18.2-4-18.4-4-0.2 0-0.7 0.7-1 1.5z"/>
		<path id="Path 20" class="s5" d="m267.3 393.3c-0.9 0.9-0.7 1.6 0.5 3 1.6 1.6 1.6 1.7-0.1 1.7-0.9 0-1.5 0.4-1.2 1 0.3 0.6 1.2 0.8 2 0.5 0.8-0.3 1.5-1.2 1.5-2 0-0.8-0.5-1.5-1-1.5-0.6 0-0.8-0.9-0.5-2 0.3-1.1 0.4-2 0.3-2-0.2 0.1-0.8 0.6-1.5 1.3z"/>
		<path id="Path 21" class="s1" d="m117.1 372.6c-0.7 1.6-2.3 5.6-3.6 8.9-1.3 3.3-4.2 9.5-6.4 13.7-3.3 6.3-3.8 7.9-2.6 8.3 0.8 0.3 3.8 0.5 6.5 0.5 2.8 0 9.4 0.5 14.8 1 7.6 0.8 10 0.8 11.1-0.2 1.2-1 1.3-1 0.8-0.1-0.5 1 0.7 1.4 4.6 1.8 2.8 0.3 11.1 1 18.2 1.6 7.2 0.7 13.8 0.9 14.8 0.5 0.9-0.3 1.5-0.3 1.3 0.1-0.2 0.5 5 1.2 11.7 1.6 6.7 0.5 12.9 1 13.7 1.2 0.8 0.2 3.8 0.4 6.5 0.6 2.8 0.2 5.7-0.1 6.5-0.7 1.1-0.6 1.3-0.6 0.7 0.3-0.4 0.7-0.3 1.3 0.3 1.3 0.6 0 1.9-0.5 3-1q2-1 1.5 0c-0.3 0.6 1.4 1.2 3.8 1.5 2.3 0.2 7.6 0.7 11.7 1 4.1 0.3 11.3 1 16 1.5 4.7 0.5 9.6 0.8 11 0.7 1.9-0.2 2.6-0.8 2.8-2.7 0.1-1.4 0.3-3.1 0.5-3.8 0.1-0.6 0.5-1.2 1-1.2 0.4 0 0.4-0.6 0-1.3-0.4-0.6-0.9-3.1-1-5.5-0.2-3.4 0-4.2 1.5-4.2 1.4 0 1.4-0.3-0.5-2-1.3-1.1-2.1-2.5-1.8-3 0.3-0.6 0.7-1 1-1 0.3 0 0.2 0.6-0.2 1.2-0.5 1-0.3 1 1 0 1.5-1 1.8-0.8 2.5 1.5 0.7 2.3 0.9 2.5 1.5 1 0.4-0.9 0.3-1.7-0.3-1.7-0.6 0-1-0.7-1-1.5 0-0.9-0.6-1.3-1.5-1-0.8 0.3-1.7 0-2-0.5-0.3-0.6-1.4-1-2.5-1-1.2 0-1.8 0.5-1.4 1.2 0.3 0.7 0 0.5-0.8-0.4-0.7-1-1.7-1.7-2.3-1.7-0.6 0-2.4-1.3-4-2.9-2.8-2.8-3.7-3-17-4.2-7.7-0.8-15.3-1.4-17-1.5-1.6-0.2-5.7-0.5-9-0.9-3.3-0.3-14.8-1.5-25.5-2.6-10.7-1.2-21.1-2.3-23-2.6-1.9-0.3-7-0.7-11.2-0.9-4.3-0.3-9-0.8-10.5-1.2-2.1-0.5-2.6-0.4-2 0.5 0.5 0.8-0.1 1.2-1.8 1.2-1.4 0-2.3-0.5-2-1 0.3-0.6-1-1.2-2.7-1.4-1.8-0.3-4-0.5-4.8-0.5-0.8 0.1-3.6-0.2-6.1-0.6-4.5-0.7-4.7-0.6-5.8 2.1z"/>
		<path id="Path 22" class="s3" d="m105.3 372c-0.7 2.2-3.4 8.4-6 13.8-2.6 5.3-5 9.9-5.3 10.2-0.3 0.3-1.1 1.9-1.8 3.5-0.7 1.6-1.1 3.1-1 3.1 0.2 0.1 3.5 0.4 7.3 0.6 3.8 0.3 6.4 0.4 5.8 0.2-0.9-0.3 0-2.9 2.8-8.2 2.2-4.2 5.6-11.8 7.5-16.7 1.9-4.9 3.3-9.1 3.2-9.1-0.2-0.1-2.8-0.4-5.8-0.8l-5.5-0.7z"/>
		<path id="Path 23" class="s3" d="m219.1 360.3c0.3 0.7 2 1.1 3.7 0.9 1.8-0.1 3.2 0.2 3.2 0.8 0 0.5 0.4 1 1 1 0.6 0 0.8-0.5 0.5-1-0.3-0.6-0.2-1 0.3-1 0.4 0 1.3 0.4 2 1 0.7 0.5 0.5 0.2-0.3-0.8-1-1.1-3.3-1.8-6.2-1.9-3.3-0.1-4.5 0.2-4.2 1z"/>
		<path id="Path 24" class="s3" d="m110.1 359.7c-0.1 1.6 1.2 1.9 10.1 2.7 5.7 0.5 13 1 16.3 1.1 3.3 0.1 6.6 0.5 7.3 0.9 0.6 0.3 5.7 0.7 11.2 0.9 5.5 0.1 10 0.4 10 0.7 0 0.3 5.5 1.1 12.2 1.7 6.8 0.7 13.5 1.2 14.9 1 1.5-0.1 2.5 0 2.4 0.3-0.2 0.3 1.5 0.8 3.8 1.2 2.7 0.4 4.7 0.2 5.6-0.5 1.2-0.9 1.3-0.9 0.8 0.1-0.5 0.8 0.2 1.2 2.6 1.2 1.7 0 5.2 0.2 7.7 0.3 2.5 0.2 5.1 0.7 5.8 1 0.6 0.4 3.3 0.6 6 0.5 2.6-0.1 5.4 0.2 6.2 0.8 1.1 0.6 1.3 0.6 0.7-0.3-0.4-0.7-0.5-1.3-0.2-1.3 0.3 0 1.3 0.4 2.3 1 0.9 0.5 5.2 1.3 9.4 1.7 6 0.6 7.8 0.5 7.8-0.4 0-0.8-1.8-1.5-4.7-1.7-2.7-0.3-5.9-0.5-7.3-0.6-1.4-0.1-5-0.4-8-0.7-3-0.3-8-0.6-11.2-0.7-3.1 0-5.4-0.4-5.2-0.8 0.2-0.5-1.1-0.9-2.8-0.9-1.8-0.1-6.1-0.2-9.5-0.3-3.5-0.1-6.3-0.3-6.3-0.6 0-0.3-7.1-1.2-15.7-1.9-8.7-0.8-17.8-1.5-20.3-1.5-2.5-0.1-4.7-0.4-5-0.9-0.3-0.4-4.6-0.9-9.6-1-5.1-0.1-9-0.5-8.8-0.9 0.2-0.5-2.3-0.8-5.6-0.8-3.3 0-6.3-0.1-6.7-0.3-0.5-0.2-3.5-0.6-6.8-1.1-3.3-0.4-6.7-0.9-7.7-1.2q-1.6-0.5-1.7 1.3z"/>
		<path id="Path 25" class="s2" d="m269.9 348.9c-1.2 2.5-2.6 5.4-3 6.4-0.5 0.9-1.8 4.1-2.9 7-1.2 2.8-2.4 8.3-2.8 12-0.6 6.2-0.5 6.8 1.1 6.3 0.9-0.3 1.7-0.3 1.7 0.2 0 0.4 0.6 0.7 1.3 0.7 0.6 0.1 3 0.6 5.2 1.2 2.2 0.6 6.5 1.8 9.5 2.6 3 0.9 7.3 1.9 9.5 2.3 2.2 0.3 4.5 1 5 1.4 0.6 0.5 2.4 1 4 1.3 1.6 0.3 4.4 0.8 6 1.2 1.6 0.4 5.3 1.5 8.1 2.4 2.9 0.9 5.6 2 6 2.4 0.5 0.5 1 3.9 1.1 7.5 0.1 3.7 0.4 6.8 0.7 7 0.4 0.1 2.5-0.7 4.9-1.8 2.3-1 5.3-2.9 6.7-4.2 1.3-1.3 2.5-2.1 2.5-1.8 0.1 0.3 3.9-1.7 8.6-4.4 4.6-2.8 11.5-7 15.4-9.5 3.9-2.4 7.3-4.7 7.8-5 0.4-0.3-0.5-1.9-2-3.6-1.5-1.6-7.3-8.2-12.9-14.5-5.6-6.3-11.7-13.2-13.5-15.2l-3.4-3.7c-4.6 8.8-6.4 11.7-7 12.2-0.5 0.4-2.8 0.5-5 0.2-2.2-0.3-4.4-0.9-5-1.3-0.5-0.3-1.9-0.8-3-0.9-1.1-0.2-2.7-0.6-3.5-1-0.8-0.3-2.3-0.8-3.2-1-1-0.1-4.4-1.1-7.5-2.2-3.2-1-8.5-2.6-11.8-3.6-3.3-0.9-7.1-2.1-8.5-2.7-1.4-0.6-3.7-1.4-5.2-1.8-2.5-0.7-2.9-0.4-4.9 3.9z"/>
		<path id="Path 26" class="s0" d="m349.2 376.8c-0.7 2.6-1 4.8-0.7 4.9 0.3 0.2 1.2-1.7 2-4.2 0.8-2.5 1.1-4.7 0.7-4.9-0.5-0.3-1.4 1.6-2 4.2z"/>
		<path id="Path 27" class="s6" d="m309.9 362.5c-0.8 0.9-1 1.6-0.4 1.5 0.5 0 0.4 0.6-0.3 1.3-0.7 0.6-1.2 2.2-1.2 3.5 0 1.2 0.5 2 1 1.7 0.6-0.3 0.8-1.4 0.5-2.5-0.3-1.1 0-2 0.5-2 0.6 0 0.8-0.7 0.5-1.5-0.3-0.8 0.1-1.7 0.8-1.9 0.6-0.2 0.9-0.6 0.6-1-0.3-0.4-1.2 0.1-2 0.9z"/>
		<path id="Path 28" class="s0" d="m182.5 314.5c-1.5 3.9-4.2 9.6-6.1 12.8-2.2 3.7-4.6 6.3-6.9 7.4-2 1-3.5 2.4-3.5 3 0 0.7 1 1.3 2.3 1.3 1.2 0 3.3-0.7 4.7-1.6 1.4-1 3.6-2.8 5-4.1l2.5-2.3c7.8 4.8 10.2 6.5 10.5 6.9 0.3 0.3 4.3 3.1 9 6.2 4.7 3.1 11 7 14 8.7 3 1.7 6.8 3.2 8.5 3.3 1.7 0.1 4.8-0.3 7-0.9 2.2-0.6 6.9-3 10.5-5.3 3.6-2.2 10.7-8.5 15.9-13.8 5.1-5.3 11-10.6 13-11.7 3.6-2.2 3.6-2.2 1.1-2.9-1.4-0.4-9-0.2-17 0.5-8.4 0.8-21 1.1-30 0.7-8.7-0.3-18.8-1.2-23-2.2-4.1-0.9-8.8-2-10.5-2.4-2.7-0.6-3-1-2.7-4.1 0.1-1.9-0.2-4.2-0.7-5-0.6-1.1-1.5 0.3-3.6 5.5z"/>
		<path id="Path 29" class="s3" d="m222.5 341.1c-1.1 0.5-2.6 2-3.4 3.2-1.2 1.9-1.2 2 0 1 0.8-0.7 2.7-1.4 4.3-1.5 1.6-0.2 2.9-0.9 3-1.5 0.1-0.8 0.7-1 1.6-0.6 1.1 0.6 1.3 0.4 0.6-0.5-0.6-1-1.2-1.1-2-0.3-0.5 0.6-1.4 1.1-1.8 1.1-0.4 0-0.6-0.5-0.3-1 0.2-0.6 0.3-1 0.2-0.9-0.1 0-1.1 0.5-2.2 1zm-7.8-10.4c-0.7 0.8-0.8 1.4-0.3 1.3 0.6 0 0.5 0.6-0.2 1.2-0.7 0.7-1.2 2.1-1.2 3 0 1-0.8 2.2-1.8 2.8-1.3 0.7-1.4 0.9-0.2 1 1.3 0 1.3 0.1 0 0.9-1.2 0.7-1.1 1 0.8 1.5 1.4 0.4 2.6 0.1 3.2-0.9q1-1.5 0-2c-0.6-0.3-1 0.3-1 1.2 0 1.5-0.2 1.6-1 0.3-0.5-0.9-0.5-2 0.1-2.8 0.5-0.6 1.5-0.9 2.1-0.6 1 0.6 1 0.5 0-0.5-0.9-0.9-0.8-1.5 0.5-3.1 1-1 2.2-1.6 2.8-1.2 0.6 0.4 0.7 0.2 0.2-0.6-0.4-0.7 0-1.3 1-1.5 1.1-0.2 0.7-0.5-1-0.9-1.8-0.3-3.3 0-4 0.9z"/>
		<path id="Path 30" class="s4" d="m225 328.7c3 0.2 8.2 0.2 11.5 0 3.3-0.2 0.8-0.3-5.5-0.3-6.3 0-9 0.1-6 0.3z"/>
		<path id="Path 31" class="s7" d="m184.5 325.1c-0.4 1.5 0.3 2.3 3.3 3.6 2 1 4.1 2.3 4.7 3 0.6 0.6 5.5 3.9 11 7.2 9.5 5.8 10.1 6 11.8 4.3 0.9-0.9 2-1.3 2.5-0.9 0.4 0.5-0.1 1.3-1.1 1.8-0.9 0.5-1.5 1.3-1.2 1.9 0.3 0.5 1.1 1 1.7 1 0.7 0 1-0.2 0.5-0.5-0.4-0.3 0.2-1.4 1.3-2.5 1.1-1.1 2.9-2.5 4-3q2-1 1.5 0c-0.3 0.5-0.1 1 0.3 1 0.5 0 1.2-0.3 1.6-0.8 0.4-0.4 1.4-0.8 2.2-1 0.8-0.1 1.4 0 1.4 0.3 0 0.3-1.2 1.2-2.8 2.2-1.5 0.9-3.8 1.7-5.2 1.7-1.5 0.1-2.6 0.8-2.7 1.8-0.2 1.3 0.6 2 2.4 2.3 1.6 0.3 3.9 0.2 5.3-0.3 1.4-0.5 4.1-2 6-3.3 2-1.3 4.8-3.4 6.3-4.7 1.5-1.2 2.5-2.8 2.2-3.7-0.3-0.9 0-1.3 0.7-1 0.7 0.3 2.2-0.3 3.3-1.5 1.1-1.1 1.7-2.1 1.3-2-0.4 0-1.4 0.7-2.2 1.5-1.4 1.3-1.7 1.3-2.9-0.1-1-1.4-0.9-1.6 0.8-1.3 1.2 0.3 1.9-0.1 1.7-0.9q-0.2-1.2 2-0.6c1.8 0.5 2 0.4 0.8-0.5-0.8-0.6-3.9-1.1-6.8-1.1-4.9 0-5.2 0.1-4.7 2.2l0.6 2.3c-1.6-3.5-2.5-4.5-3.1-4.5-0.6 0-0.8 0.4-0.5 1 0.3 0.5-0.2 1.2-1 1.5q-1.5 0.5-1-1c0.4-1.3-1-1.5-9.9-1.3-6.3 0.2-10.2-0.1-9.8-0.6 0.4-0.6-0.6-0.8-2.5-0.5-1.8 0.2-3.3 0.2-3.3-0.1 0-0.3-3.5-1.1-7.7-1.9-4.3-0.8-8.8-1.8-10-2.2-1.7-0.6-2.3-0.3-2.8 1.2z"/>
		<path id="Path 32" class="s4" d="m128.3 221c0 4.1 0.2 5.9 0.4 4 0.2-1.9 0.2-5.3 0-7.5-0.2-2.2-0.4-0.6-0.4 3.5z"/>
		<path id="Path 33" class="s8" d="m221.9 165.5c0 7.7 0.3 13.8 0.6 13.5 0.3-0.3 0.5-6.3 0.5-13.5-0.1-7.2-0.3-13.2-0.6-13.5-0.2-0.3-0.5 5.8-0.5 13.5z"/>
		<path id="Path 34" class="s8" d="m258.3 156c0 4.1 0.2 5.9 0.4 4 0.2-1.9 0.2-5.3 0-7.5-0.2-2.2-0.4-0.6-0.4 3.5z"/>
		<path id="Path 35" class="s9" d="m121.4 150.8c0.4 1.5 0.9 3.8 1.2 5.2 0.2 1.4 0.9 4.7 1.4 7.5 0.5 2.7 1.1 7.5 1.4 10.5 0.3 3 1 8.9 1.5 13 0.5 4.1 1.3 14.2 1.7 22.5 0.4 8.2 0.7 19.9 0.6 26-0.1 6-0.4 14.8-0.7 19.5-0.3 4.7-1 13.9-1.6 20.5-0.5 6.6-1.4 14.5-1.9 17.5-0.5 3-1.1 7.9-1.4 10.7-0.3 2.9-1 6.3-1.5 7.5-0.4 1.3-1.2 4.5-1.6 7.3-0.4 2.7-1.3 7.7-2.1 11-0.8 3.3-2.3 9.3-3.4 13.2-1.1 4-1.8 7.6-1.6 8 0.2 0.5 3.7 1.1 7.7 1.5 4.1 0.4 13.2 1.2 20.4 1.8 7.2 0.6 14.6 1.2 16.5 1.5 1.9 0.2 12.9 1.3 24.5 2.4 11.6 1.2 22.8 2.3 25 2.5 2.9 0.3 4.3 0 5.3-1.2 0.9-1.3 1.1-1.3 0.7-0.2-0.3 0.9 0.1 1.5 0.9 1.5 0.8 0 1.2-0.3 1-0.8-0.2-0.4 0-0.7 0.6-0.7 0.6 0 1 0.4 1 1 0 0.6 0.7 1.2 1.5 1.5 1.3 0.4 1.3 0.1 0.1-2.8q-1.5-3.2-3.3-3c-1 0.2-1.5-0.1-1.1-0.5 0.5-0.4-2-2.5-5.5-4.6-3.4-2.2-9.3-6-13.1-8.5-3.8-2.5-8.3-5.6-10-6.8-1.7-1.2-3.6-2.2-4.3-2.2-0.6-0.1-1.8 0.5-2.5 1.2-0.7 0.8-2.9 2.4-4.8 3.5-1.9 1.2-4.7 2.2-6.3 2.2-2 0-2.7-0.5-2.7-2 0-1.2 1.1-2.6 2.7-3.4 1.6-0.8 4-2.7 5.5-4.3 1.5-1.5 3.8-5.3 5.1-8.3 1.3-3 3.3-7.4 4.3-9.8 1-2.3 2.5-4.2 3.1-4.2 0.7 0 1.5 1 1.7 2.2 0.3 1.3 0.4 3.3 0.3 4.5-0.2 1.8 0.6 2.3 5.3 3.3 3 0.6 9.3 1.8 14 2.6 5.1 0.8 15.3 1.4 25.5 1.4 9.3 0 20.4-0.4 24.5-0.9 4.1-0.5 8.9-0.8 10.5-0.7 1.6 0.2 3.6 0.4 4.2 0.4 0.7 0.1 1.3 0.6 1.3 1.2 0 0.6-1.9 2.1-4.3 3.4-2.3 1.4-6.2 4.8-8.7 7.7-2.5 2.9-7.7 8-11.6 11.4-3.9 3.3-10.2 7.5-14 9.4-4.2 2-8.4 3.4-10.9 3.4h-4c7.9 2 8.8 1.9 9.5 0.7 0.8-1.1 1-0.8 1 1.2 0 2.2-0.4 2.7-1.8 2.2-0.9-0.3-1.3-0.2-0.9 0.3 0.5 0.4 2.1 0.9 3.5 1 1.5 0.1 7 0.6 12.2 1.2 5.2 0.6 10.1 1.1 10.7 1.1 0.7 0 1.1-0.7 0.8-1.5-0.3-0.8-0.1-1.5 0.5-1.5 0.6 0 1.3-1 1.6-2.3 0.3-1.2 1.2-3.6 1.9-5.2 0.7-1.6 2.7-6.1 4.4-10 2.2-5 3.9-7.4 5.8-8.3 2.5-1.2 4.2-0.8 16.8 3.2 7.7 2.5 19.4 6.3 26 8.4l12 3.9c5.7-10.2 7.8-15.7 8.4-18.7 0.6-3 2.2-11.6 3.5-19 1.3-7.4 3-18.9 3.7-25.5 0.9-7.3 1.4-23.2 1.4-41 0-15.9-0.3-32.6-0.8-37-0.4-4.4-1.4-12.1-2.2-17-0.8-4.9-2.1-11.9-2.9-15.5-1.3-6.2-1.4-6.4-2.5-3.8-0.6 1.6-2.5 3.4-4.1 4-2.6 1.1-3 1.8-3 5.3 0 2.2-0.5 5.7-1 7.7-0.6 2.1-1.3 3.8-1.8 3.8-0.4 0-1-1.7-1.4-3.7-0.4-2.1-0.8-5.3-0.8-7.1 0-2.1-0.6-3.4-1.8-3.8-0.9-0.4-3.3-2.4-5.2-4.6l-3.5-4.1c-8.5 8-11.8 10.5-12.8 10.8-0.9 0.3-1.8 1.5-1.9 2.7 0 1.3 0 3.4 0.1 4.8 0.1 1.4-0.3 5-0.9 8-0.6 3-1.7 7-2.5 8.7-0.8 1.8-1.9 3.1-2.5 2.8-0.6-0.3-1-4.8-1-10.5 0-5.5-0.2-10-0.5-10-0.3 0-5.1 2.8-10.8 6.2-5.6 3.3-12.2 7-14.7 8.2-2.5 1.1-5.2 2.1-6 2.2-0.8 0.1-3.3 0.5-5.5 0.8-3.1 0.5-4.7 0.2-7.3-1.4-2.9-1.8-3.2-2.4-3.2-7 0-2.9 0.7-6.2 1.7-8 1-1.7 2.1-3 2.5-3 0.5 0 0.8-0.7 0.8-1.5 0-0.8 1.3-2.9 3-4.5 1.7-1.7 3-3.4 3-4 0-0.6-0.2-1-0.5-1-0.3 0-1.3 0.4-2.3 1-0.9 0.5-6 2.3-11.2 3.9-5.2 1.7-11.3 3.3-13.5 3.6-2.2 0.3-5.6 0.7-7.5 1-1.9 0.2-7.4 0.4-12.3 0.4-7.6 0.1-8.7 0.3-8.7 1.8 0 1-0.9 3.1-2 4.8l-2 3c0-19.7-0.4-24.5-1-24.5-0.6 0-2.7 0.6-4.8 1.4-2 0.8-6.1 1.9-9 2.5-2.8 0.6-6.9 1.1-9 1.1-2 0-6.1-1.1-9-2.5-2.8-1.4-5.4-3.1-5.7-3.8-0.3-0.6-0.6-4.5-0.7-8.6-0.2-4.1-0.7-7.6-1.3-7.8-0.6-0.2-0.9 4.6-0.6 13.5 0.2 7.5-0.1 17.3-0.7 21.7-0.6 4.4-1.6 9.3-2.2 11-0.9 2.4-1.3 2.7-2 1.5-0.5-0.8-0.9-9.8-1-20-0.1-10.2-0.3-20.3-0.6-22.5-0.3-2.2-0.7-4.6-1-5.3-0.2-0.7-2.9-1.3-7.2-1.5-3.8-0.1-8.2-1-10.2-2-1.9-1-3.7-1.7-3.8-1.7-0.2 0-0.1 1.2 0.2 2.7z"/>
		<path id="Path 36" class="s0" d="m161.4 225.3c-1.3 2.6-1.5 5.3-1.1 13.7 0.2 5.8 1.2 13.6 2 17.5 0.8 3.9 2.7 10.4 4.2 14.5 1.5 4.1 4.3 10.1 6.3 13.2 2.6 4 4.6 6.1 6.7 6.7 1.6 0.5 7.7 1.4 13.5 2.1 5.8 0.6 14.1 1.4 18.5 1.8 4.4 0.4 9 0.6 10.2 0.5 1.5-0.2 3.9-2.4 6.5-6.1 2.4-3.1 4.7-6.4 5.3-7.4 0.6-0.9 3.2-4.8 6-8.7 2.7-4 5.4-7 6-6.8 0.6 0.2 3.6 6 6.7 12.8 3.1 6.8 6.4 13.6 7.2 15.1 1.1 1.9 2.9 3.1 5.3 3.7 2.1 0.5 12.2 1.4 22.5 2 18.7 1.1 18.8 1.1 22-1.2 1.7-1.2 5-4.7 7.2-7.7 2.2-3 6.3-10.4 9.1-16.5 2.9-6.1 6-14.1 7.1-18 1-3.9 1.9-10 1.9-13.7 0-3.6-0.2-6.9-0.5-7.2-0.3-0.3-3.9-1-8-1.6-4.1-0.5-16.9-1.7-28.5-2.5-11.6-0.9-28-2-36.5-2.5-8.5-0.6-23.8-1.7-34-2.5-10.2-0.8-27.7-2.2-39-3-11.3-0.8-21.5-1.5-22.7-1.5-1.5 0-2.8 1-3.9 3.2z"/>
		<path id="Path 37" class="s10" d="m311.1 246.8c-0.2 6.2-0.7 8.4-2.6 11.2-1.4 2.1-2.7 5.7-3 9-0.4 3-1.1 6.4-1.7 7.5-0.6 1.1-0.8 3.5-0.4 5.2 0.3 1.8 0.3 3.5-0.2 3.7-0.4 0.2-0.9 1.7-1.2 3.4-0.3 1.6-0.2 2.8 0.2 2.6 0.5-0.2 0.8 0.7 0.8 2.1 0 2 0.3 2.3 1.7 1.6 1-0.5 3.9-4 6.4-7.7 2.6-3.8 5.9-9.6 7.4-12.9 1.5-3.3 3.4-7.6 4.1-9.5 0.7-1.9 1-3.9 0.6-4.3-0.4-0.4-0.1-0.7 0.5-0.7 0.8 0 1.8-2.7 2.5-7.3 0.7-3.9 1.3-7.9 1.3-8.7 0-1-1.5-1.7-4.5-2.2-2.5-0.3-6.1-0.7-8-0.7l-3.6-0.1z"/>
		<path id="Path 38" class="s2" d="m288.5 238.7c-0.5 0.3-0.8 1.8-0.7 3.2 0.1 1.4-0.3 5.3-0.9 8.6-0.6 3.3-1.7 8.3-2.5 11-0.7 2.8-2.6 9.2-4.1 14.4-1.6 5.4-3.4 9.6-4.3 9.9-0.8 0.3-1.9 1.1-2.5 1.7-0.6 0.6-1.1 1.6-1.3 2.3-0.1 0.8 1.5 1.4 4.5 1.7 2.7 0.2 9.3 0.7 14.8 1.1 8.6 0.7 9.9 0.6 9.1-0.7-0.8-1.1-0.7-1.1 0.8 0.1 1.5 1.4 1.7 1.3 1.6-0.7 0-1.3-0.3-2.1-0.8-1.9-0.4 0.2-0.5-1-0.2-2.6 0.3-1.7 0.8-3.2 1.2-3.4 0.5-0.2 0.5-1.9 0.2-3.6-0.4-1.8-0.2-4.2 0.4-5.3 0.6-1.1 1.3-4.5 1.7-7.5 0.3-3.3 1.6-6.9 3-9 1.8-2.8 2.4-5.1 2.7-11l0.3-7.5c-7.8-1-12.7-1.4-16.1-1.4-3.3-0.1-6.4 0.2-6.9 0.6z"/>
		<path id="Path 39" class="s10" d="m205.1 231.9c-0.1 0.6 0.2 1.1 0.7 1.1 0.4 0 0.7 8.9 0.7 19.7 0.1 10.9 0.3 21.9 0.5 24.4 0.3 2.6 0.8 5.1 1.3 5.5 0.4 0.5 0.7 1.5 0.7 2.1 0 0.7-0.9 1.3-2 1.3-1.1 0-1.8 0.3-1.6 0.7 0.2 0.5 3.3 0.9 6.8 1.1 3.4 0.2 6.6 0.5 7.1 0.8 0.4 0.2 1-0.4 1.4-1.4 0.3-0.9 0.5-2 0.5-2.5-0.1-0.4 0.2-0.5 0.8-0.2 0.6 0.3 1.3-0.3 1.7-1.3 0.3-0.9 0.9-1.9 1.3-2.2 0.3-0.3 3.8-5 7.7-10.5 3.9-5.5 7.7-10.5 8.4-11.1 0.8-0.6 2.6-1.4 4.2-1.8 2.1-0.4 3.2-0.1 4.7 1.6 1.1 1.3 2.3 3.1 2.5 4 0.3 1 0.9 1.8 1.5 1.8 0.6 0 0.8 0.3 0.6 0.7-0.3 0.5 0.8 3.6 2.5 7 1.6 3.5 3.3 6.3 3.9 6.3 0.6 0 0.8 0.4 0.5 1-0.3 0.6-0.1 1 0.5 1 0.6 0 0.7 0.6 0.4 1.2-0.3 0.7 0.1 2 0.9 2.8 0.7 0.8 1.7 2.7 2 4.2 0.7 2.7 0.9 2.8 7 2.7 4.7-0.1 5.4-0.3 2.9-0.8-1.8-0.3-3.2-1-3.1-1.6 0.2-0.6 0.7-1.5 1.3-2.1 0.6-0.5 1.8-1.3 2.6-1.6 0.9-0.3 2.7-4.5 4.3-9.9 1.5-5.2 3.4-11.7 4.1-14.4 0.8-2.8 1.9-7.7 2.5-11 0.6-3.3 1.1-7.2 1.1-8.8 0-1.5 0.8-3.1 1.8-3.7 1.4-0.9 1.3-1-0.8-0.8-1.4 0.1-6.8-0.1-12-0.6-5.2-0.4-13.8-0.9-19-1.1-5.2-0.2-15.3-0.8-22.5-1.4-7.1-0.6-16.5-1.3-20.7-1.6-4.3-0.3-8.2-0.8-8.7-1.1-0.5-0.3-0.9 0-1 0.5z"/>
		<path id="Path 40" class="s2" d="m169.7 231.1c-1.2 0.6-1.6 2-1.4 4.9 0.1 2.2 0.8 4.2 1.5 4.5 0.6 0.3 1.8-0.6 2.5-2 0.7-1.5 1.7-2.1 2.4-1.7 0.9 0.5 1 1.6 0.3 4.2-0.6 1.9-1 5.2-1 7.3 0 2.7-0.3 3.5-1.2 3-0.9-0.6-1-0.4-0.3 0.7 0.5 0.8 1.1 2.1 1.2 2.8 0.2 0.6-0.4 1.2-1.2 1.2-1 0-1.3 0.7-1 2.3 0.3 1.2 0.9 2.4 1.4 2.7 0.5 0.3 1.2 2.3 1.4 4.5 0.3 2.2 1 5.9 1.6 8.3 0.7 2.6 1.7 4.2 2.6 4.2 0.8 0 1.3 0.4 1 1-0.3 0.6-0.1 1 0.5 1 0.6 0 0.9 0.3 0.9 0.8-0.1 0.4-0.1 1.1 0 1.7 0 0.6 3.3 1.6 7.3 2.3 4 0.7 10.1 1.4 13.5 1.5 3.4 0.1 6.5-0.1 7-0.5 0.4-0.4 0.4-1.6-0.1-2.5-0.4-1-1.1-3.8-1.4-6.3-0.3-2.5-0.6-13.4-0.7-24.3 0-16.6-0.2-19.8-1.5-20.2-0.8-0.2-3.7-0.6-6.5-0.9-2.7-0.3-9.2-0.8-14.4-1.1-6.5-0.5-9.6-0.4-9.8 0.4-0.2 0.7-0.8 0.8-1.6 0.2-0.8-0.6-2-0.6-3 0z"/>
		<path id="Path 41" class="s10" d="m168.1 229.7c-1.1 0.3-1.4 1.8-1.3 4.6 0.1 2.3 0.9 8.5 1.6 13.7 0.8 5.2 2.6 13.2 4 17.8 1.4 4.5 2.8 8.2 3.1 8.2 0.3 0 0.2-0.8-0.1-1.7-0.3-1-0.8-3.8-1-6.3-0.3-2.5-1-4.7-1.5-5-0.5-0.3-1.1-1.5-1.4-2.7-0.3-1.5 0-2.3 0.8-2.3 0.8 0 1.3-2 1.5-5.7 0.1-3.2 0.7-7.4 1.2-9.3 0.7-2.5 0.6-3.7-0.3-4.2-0.7-0.4-1.7 0.2-2.4 1.7-0.7 1.4-1.9 2.3-2.5 2-0.7-0.3-1.4-2.3-1.5-4.5-0.2-3.2 0.1-4.2 1.7-5q2-1 2.5 0c0.3 0.6 1 0.6 1.8 0.1 0.6-0.5 2.1-1.1 3.2-1.4 1.1-0.2-0.2-0.5-3-0.5-2.7 0-5.7 0.2-6.4 0.5z"/>
		<path id="Path 42" class="s2" d="m321.6 149.3c0.3 2.3 1 5.8 1.5 7.7 0.5 1.9 1.3 7.7 1.7 12.8 0.4 5 1.1 9.2 1.7 9.2 0.5 0.1 2.1-0.8 3.5-1.9 2-1.5 2.5-2.8 2.4-5.8-0.1-2.1-1.5-7.6-3.2-12.3-1.6-4.7-3.6-9.8-4.3-11.3-0.8-1.5-2-2.7-2.7-2.7-0.9 0-1.1 1.2-0.6 4.2z"/>
		<path id="Path 43" class="s2" d="m287.2 142.5c-0.9 1.2-0.9 2.3 0.3 5.3 0.8 2 1.9 5.5 2.4 7.7 0.5 2.2 1.6 6.5 2.4 9.5 0.8 3 1.8 8.3 2.1 11.8 0.3 3.4 1.1 6.2 1.6 6.2 0.6 0 2.5-1.2 4.2-2.8 1.8-1.5 4.6-4 6.2-5.7l2.9-3c5.6 6.6 7.8 8.5 8.5 8.5 0.9 0 1-1.6 0.6-6.3-0.4-3.4-1.5-11.1-2.5-17.2-1-6.1-2.2-11.3-2.6-11.7-0.4-0.4-6-1-12.3-1.3-6.3-0.4-11.7-1.1-12.1-1.6-0.3-0.6-1-0.3-1.7 0.6z"/>
		<path id="Path 44" class="s10" d="m146.1 140.7c0 1 0.6 3.2 1.2 4.8 1.2 3 1.3 3 8.9 3h7.8v-8.5c-8.1 0.4-12.2 0.1-14.2-0.3-3.2-0.7-3.7-0.5-3.7 1z"/>
		<path id="Path 45" class="s10" d="m285.5 138.7c-0.5 0.3-0.8 1.8-0.7 3.2 0.1 2.5 0.2 2.5 2.2 0.9 1.1-1 2.1-1.4 2.3-0.9 0.1 0.6 5.4 1.3 11.7 1.6 6.3 0.4 11.8 0.8 12.3 1.1 0.4 0.2 0.6-0.7 0.5-2-0.3-2.3-0.6-2.4-11.8-3-6.3-0.4-12.5-0.9-13.6-1.1-1.2-0.3-2.5-0.2-2.9 0.2z"/>
		<path id="Path 46" class="s2" d="m179.6 142.3l-8.9 4.2c-2.6 9.6-3.8 12.1-4.7 12.3-1.1 0.2-1.6-0.9-1.8-4.5-0.2-2.6-0.5-5-0.7-5.3-0.2-0.3-3.6-0.5-7.7-0.5-6.7 0-7.3 0.2-7 2 0.2 1.1 1 2.3 1.8 2.7 1 0.6 1.4 2.9 1.4 8.3 0 4.1 0.2 7.9 0.5 8.5 0.3 0.5 2.9 2.1 5.8 3.5 2.9 1.4 7 2.5 9.2 2.5 2.2 0 6-0.5 8.5-1 2.5-0.6 6.9-1.8 9.9-2.7l5.3-1.8c-1.1-24-1.7-31.3-2.1-31.7-0.4-0.3-4.7 1.3-9.5 3.5z"/>
		<path id="Path 47" class="s2" d="m196.3 137.9c-0.4 0.5-0.2 6.9 0.5 14.2 0.7 7.5 1 16.7 0.6 20.9-0.3 4.1-0.8 8.7-1 10.2l-0.4 2.8c14.3-0.2 21.4-0.7 25-1.1 3.6-0.5 10.8-2.3 16-3.9 5.2-1.7 10.3-3.5 11.2-4 1-0.6 2-1 2.3-1 0.3 0 0.5 0.4 0.5 1 0 0.6-1.4 2.3-3 4-1.7 1.7-3 3.7-3 4.5 0 0.8-0.3 1.5-0.8 1.5-0.4 0-1.5 1.3-2.5 3-1 1.8-1.7 5.1-1.7 8 0 4.6 0.3 5.2 3.2 7 2.6 1.6 4.2 1.9 7.3 1.4 2.2-0.3 4.8-0.6 5.7-0.5 1 0 2.2-0.6 2.8-1.4 0.6-0.8 1.3-1.3 1.7-1 0.5 0.2 6.4-2.8 13.3-6.8l12.5-7.2c-0.2-15.5-1-22.9-1.8-26.5-0.9-3.6-2.1-9.2-2.8-12.5-0.8-3.9-2-6.8-3.6-8.3-1.7-1.6-2.8-2-4.1-1.3-0.9 0.5-2.6 0.6-3.7 0.2-1.1-0.3-4.3-0.6-7-0.6h-5c0.5 16.5 0.2 22.2-0.4 23.7-0.6 1.6-1.5 2.8-2.1 2.8-0.6 0-1.2-1.5-1.5-3.3-0.2-1.7-0.9-7.8-1.5-13.5l-1-10.2c-5-0.9-8.5-1.2-11-1.2-2.5 0-6.4 0-8.8 0.1l-4.2 0.1c0.6 15.9 0.4 24.6-0.1 29.5-0.4 4.9-1.4 10.3-2.1 11.8-0.7 1.5-1.7 2.6-2.3 2.4-0.6-0.2-1.3-8.5-1.6-20.3-0.4-10.9-0.7-20.9-0.8-22.2-0.1-1.7-0.6-2.1-2.5-2-1.3 0.2-2.2 0-2-0.5 0.2-0.4-4.1-0.7-9.6-0.7-5.4 0-10.3 0.4-10.7 0.9z"/>
		<path id="Path 48" class="s10" d="m257.2 136.7c-0.4 0.2-0.3 1.2 0.1 2.1 0.6 1.3 2.1 1.7 6 1.6 2.9 0 6.1 0.3 7.2 0.7 1.1 0.4 2.8 0.3 3.8-0.2 1.3-0.7 2.3-0.3 4.2 1.6 1.4 1.4 2.5 2.4 2.5 2.3 0-0.2-0.4-1.8-1-3.5-0.9-2.9-1.5-3.4-5.2-3.8-2.4-0.2-7.1-0.6-10.6-0.8-3.5-0.2-6.6-0.2-7 0z"/>
		<path id="Path 49" class="s10" d="m227.3 139.2c0 2.9 0.2 4.1 0.3 2.6 0.4-2.5 0.8-2.8 4.6-2.9 2.4-0.1 6.3-0.1 8.8-0.1 2.5 0 6 0.3 7.7 0.6 2.9 0.5 3.3 1 3.3 3.9 0 1.7 0.2 3 0.5 2.7 0.4-0.3 0.4-2.6 0.1-5.2l-0.6-4.8c-12-0.8-17.6-1.3-20.1-1.6l-4.7-0.6z"/>
		<path id="Path 50" class="s2" d="m118 135.8c0 0.9 0.6 3.9 1.4 6.7 1.2 4.2 2.1 5.3 5.3 7 2.4 1.2 6.3 2 10.6 2.2 5.8 0.3 6.7 0.1 6.7-1.5 0-0.9-0.5-2.4-1.2-3.3-0.7-0.9-2.9-2.5-4.8-3.6-1.9-1.2-5-3.7-6.8-5.7-2.7-3-3.9-3.6-7.2-3.6-3.1 0-4 0.4-4 1.7z"/>
		<path id="Path 51" class="s10" d="m195.6 132.6c-0.5 0.4-0.8 2.3-0.7 4.3 0.1 2.9 0.3 3.3 1.1 1.9 0.9-1.5 2.5-1.8 11-1.8 5.5 0 9.8 0.3 9.6 0.8-0.2 0.4 0.7 0.6 2 0.5 1.7-0.2 2.4-0.9 2.4-2.3 0-1.6-0.8-2.1-3.7-2.5-2.1-0.2-7.6-0.7-12.3-1-4.7-0.4-8.9-0.3-9.4 0.1z"/>
		<path id="Path 52" class="s10" d="m180 135.6c-3.6 1.8-7.3 3.3-8.3 3.3-1.3 0.1-1.7 1-1.7 4.1v4c13.6-6.5 18.1-8.4 18.8-8.4 0.7-0.1 1.2-1.5 1.2-3.3 0-2.5-0.4-3.3-1.8-3.1-0.9 0-4.6 1.6-8.2 3.4z"/>
		<path id="Path 53" class="s10" d="m115.1 126.2c0 0.2 0.6 2.8 1.4 5.8 0.7 3 1.4 4.7 1.4 3.7 0.1-1.3 1-1.7 4.1-1.7 3.4 0 4.5 0.6 7.4 3.7 1.9 2.1 5.2 4.8 7.5 6 3.7 2.1 4.1 2.1 4 0.5 0-0.9-0.8-3.3-1.7-5.3-0.9-1.9-3.7-5.3-6.2-7.6-4-3.6-5.2-4.1-11.2-4.7-3.7-0.4-6.7-0.5-6.7-0.4z"/>
		<path id="Path 54" class="s7" d="m133 119.6c0.5 1.1 2.6 3.5 4.7 5.5 2.1 2 5.6 4.3 7.8 5.2 2.2 0.8 6 1.8 8.5 2.2 2.5 0.4 7.1 0.2 10.5-0.5 3.3-0.6 7.9-1.9 10.3-2.8 2.6-1 4-2.2 3.7-2.9-0.3-0.7-0.4-1.9-0.4-2.7 0.1-1-2.9-1.6-12.7-2.5-7.1-0.6-15.8-1.4-19.4-1.6-3.6-0.3-8.2-0.8-10.2-1.1-3.3-0.5-3.6-0.4-2.8 1.2z"/>
		<path id="Path 55" class="s11" d="m208 86c-2.1 0.5-4.7 2.2-6.3 4.2-1.6 1.8-3.5 4.9-4.4 6.8-0.8 1.9-2.4 7.1-3.4 11.5-1 4.4-1.9 9-1.9 10.3 0 1.9 0.6 2.3 5.3 2.7 2.8 0.2 8.4 0.7 12.2 1l7 0.5c1.6-5 3-7 4.2-7.5 1.3-0.5 2.7-2.1 3.1-3.5 0.5-1.4 2-3.5 3.3-4.8 1.4-1.3 3.6-2.2 5.4-2.2 1.7 0 4.9 0.9 7.3 2 2.3 1.1 4.6 2.9 5.2 4 0.6 1.1 1 3.1 1 4.5 0 1.5-0.9 3.1-2.2 4-1.4 0.9-4.8 1.6-8.3 1.6-3.3 0.1-7.1 0.4-8.5 0.9-1.8 0.5-2.1 0.9-1 1.3 0.8 0.3 10.3 1.3 21 2.2 10.7 0.9 19.6 1.5 19.6 1.3 0.1-0.2-1.1-3.5-2.7-7.3-1.6-3.8-4.4-9.3-6.3-12-1.9-2.8-5.4-6.9-7.8-9.3-2.4-2.3-7.2-5.8-10.8-7.6-3.6-1.9-8.9-3.9-11.8-4.5-2.8-0.6-7.6-1.1-10.4-1-2.9 0.1-6.9 0.5-8.8 0.9z"/>
		<path id="Path 56" class="s12" d="m121.3 248c0 4.1 0.2 5.9 0.4 4 0.2-1.9 0.2-5.3 0-7.5-0.2-2.2-0.4-0.6-0.4 3.5z"/>
		<path id="1 Way Painting" fill-rule="evenodd" class="s13" d="m264.7 364l0.3-1 2 0.5 1.9-7-2.4-0.1 0.4-1.2 2.3 0.2 1.2 0.3-2.2 8.2 2.1 0.5-0.3 1.1zm13.2 3.5l0.1-9.8 1.3 0.3-0.2 8.3 4.1-7.2 1.4 0.4-0.2 8.3 4-7.3 1.3 0.3-4.8 8.6-1.6-0.4 0.2-8.5-4.1 7.4zm16.6 0.3l-1 3.9-1.2-0.3 0.3-1q-0.6 0.5-1.2 0.6-0.7 0.2-1.5 0-1.1-0.3-1.5-1.1-0.5-0.7-0.2-1.7 0.3-1.2 1.2-1.6 1-0.4 2.5 0l1.6 0.5v-0.1q0.2-0.8-0.2-1.4-0.4-0.6-1.3-0.8-0.6-0.2-1.2-0.2-0.6 0-1.2 0.2l0.3-1.1q0.7-0.1 1.3 0 0.6 0 1.2 0.2 1.5 0.4 2 1.3 0.5 1 0.1 2.6zm-1.2 0.2l-1.2-0.3q-1.3-0.4-2-0.2-0.6 0.1-0.8 0.9-0.1 0.6 0.2 1.1 0.3 0.4 0.9 0.6 1 0.2 1.7-0.3 0.8-0.5 1.1-1.6zm10.3-0.9l-5.1 6.7q-0.8 1.1-1.4 1.4-0.5 0.2-1.3 0l-0.9-0.2 0.3-1 0.6 0.2q0.5 0.1 0.8 0 0.3-0.2 0.9-0.9l0.3-0.5-0.9-7.5 1.2 0.3 0.7 6 3.6-4.8zm3.7 8.4l2.5-9.2 2.8 0.8q1.6 0.4 2.2 1.3 0.6 0.9 0.2 2.2-0.3 1.4-1.3 1.9-1 0.5-2.6 0.1l-1.5-0.5-1 3.7zm5-7.4l-1.6-0.4-0.9 3.4 1.6 0.5q0.8 0.2 1.4-0.1 0.6-0.3 0.8-1.2 0.3-0.8-0.1-1.4-0.3-0.6-1.2-0.8zm8.4 6.8l-1 4-1.2-0.3 0.3-1.1q-0.5 0.5-1.2 0.7-0.7 0.1-1.5-0.1-1.1-0.3-1.5-1-0.5-0.8-0.2-1.8 0.3-1.2 1.2-1.6 1-0.3 2.5 0.1l1.6 0.4v-0.1q0.3-0.8-0.1-1.3-0.4-0.6-1.4-0.9-0.6-0.1-1.2-0.1-0.6 0-1.2 0.1l0.3-1q0.7-0.1 1.3-0.1 0.6 0.1 1.2 0.2 1.5 0.4 2 1.4 0.6 1 0.1 2.5zm-1.2 0.2l-1.2-0.3q-1.3-0.4-1.9-0.2-0.7 0.2-0.9 0.9-0.1 0.6 0.2 1.1 0.3 0.4 1 0.6 0.9 0.3 1.7-0.2 0.7-0.5 1-1.7zm4.4-2.4l1.1 0.3-1.8 6.9-1.2-0.3zm0.8-2.7l1.1 0.3-0.4 1.4-1.1-0.3zm7.8 7.9l-1.2 4.2-1.1-0.3 1.1-4.2q0.3-0.9 0-1.5-0.2-0.6-1-0.8-0.9-0.3-1.6 0.2-0.7 0.4-1 1.4l-1 3.9-1.1-0.3 1.8-6.9 1.2 0.3-0.3 1.1q0.5-0.5 1.2-0.7 0.6-0.1 1.3 0.1 1.2 0.3 1.6 1.2 0.4 0.9 0.1 2.3zm3.5-4.1l1.1 0.3-0.5 2 2.3 0.6-0.2 0.9-2.4-0.6-1 3.7q-0.2 0.9 0 1.2 0.1 0.3 0.8 0.5l1.2 0.3-0.3 0.9-1.1-0.3q-1.3-0.4-1.7-1-0.4-0.6 0-1.9l1-3.7-0.8-0.3 0.2-0.8 0.8 0.2zm4.5 3.3l1.1 0.3-1.9 6.9-1.1-0.3zm0.7-2.7l1.2 0.3-0.4 1.4-1.2-0.3zm7.8 7.9l-1.1 4.2-1.1-0.3 1.1-4.1q0.2-1 0-1.6-0.3-0.6-1-0.8-0.9-0.2-1.6 0.2-0.7 0.4-1 1.4l-1 3.9-1.2-0.3 1.9-6.9 1.1 0.3-0.3 1.1q0.6-0.5 1.2-0.7 0.7-0.1 1.4 0.1 1.2 0.3 1.6 1.2 0.4 0.9 0 2.3zm8.7-0.6l-1.6 6.1q-0.5 1.7-1.5 2.4-1 0.6-2.7 0.2-0.5-0.2-1.1-0.4-0.5-0.2-0.9-0.5l0.3-1.1q0.4 0.4 0.9 0.6 0.4 0.3 0.9 0.4 1.1 0.3 1.8-0.1 0.8-0.4 1.1-1.6l0.1-0.6q-0.5 0.5-1.1 0.7-0.6 0.1-1.4-0.1-1.3-0.3-1.8-1.5-0.5-1.2-0.1-2.8 0.5-1.6 1.5-2.3 1-0.8 2.3-0.4 0.8 0.2 1.2 0.6 0.5 0.5 0.7 1.2l0.3-1.1zm-2.1 3.1q0.4-1.2 0-2.1-0.3-0.8-1.2-1-0.9-0.3-1.6 0.3-0.7 0.5-1 1.8-0.4 1.2-0.1 2 0.4 0.8 1.3 1.1 0.9 0.2 1.6-0.3 0.7-0.6 1-1.8z"/>
	</g>
</svg>